<?xml version="1.0" standalone="yes"?>
<svg xmlns="http://www.w3.org/2000/svg" width="1024" height="1024">
<path style="fill:#7943c1; stroke:none;" d="M384 14.5571C368.132 18.6426 361.316 37.5358 353.368 50C331.456 84.3634 311.47 119.998 290.604 155C226.219 263.005 166.317 374.223 99.5718 480.75C78.839 513.84 60.3188 548.381 40.3966 582C32.2555 595.738 16.636 614.816 15.1042 631C12.6039 657.416 29.9809 665.415 50 677.4C81.8664 696.477 113.425 716.401 146 734.23C161.084 742.486 176.743 754.249 194.961 750.661C209.182 747.86 216.211 732.836 223.18 722C240.892 694.459 256.457 665.357 273.133 637.169C320.165 557.669 366.776 477.651 413.796 398C433.329 364.913 451.088 330.042 472.349 298.059C476.232 292.216 481.957 294.328 487.285 296.754C498.77 301.982 509.86 308.052 520.996 314C559.233 334.424 596.947 355.895 635 376.661C645.522 382.403 665.401 398.602 676.385 387.671C690.318 373.804 700.097 353.73 710.281 337.089C723.818 314.971 738.163 293.21 752.232 271.424C758.907 261.089 776.846 240.218 773.525 227.001C771.318 218.22 759.096 213.235 752 209.001C731.471 196.75 710.096 185.917 689.424 173.961C617.652 132.449 544.604 93.0672 473 51.2546C456.193 41.44 439.3 31.8513 422 22.9189C409.869 16.6554 398.172 10.9084 384 14.5571z"/>
<path style="fill:#01f701; stroke:none;" d="M455 39L456 40L455 39z"/>
<path style="fill:#30235b; stroke:none;" d="M474.667 52.3333L475.333 52.6667L474.667 52.3333z"/>
<path style="fill:#01f701; stroke:none;" d="M494 61L495 62L494 61z"/>
<path style="fill:#30235b; stroke:none;" d="M492.667 62.3333L493.333 62.6667L492.667 62.3333z"/>
<path style="fill:#01f701; stroke:none;" d="M505 67L506 68L505 67M523 77L524 78L523 77M334 78L335 79L334 78M539 86L540 87L539 86z"/>
<path style="fill:#4d2057; stroke:none;" d="M546 92L548 94L548 92L546 92z"/>
<path style="fill:#01f701; stroke:none;" d="M549.667 92.3333L550.333 92.6667L549.667 92.3333z"/>
<path style="fill:#4c2881; stroke:none;" d="M568.333 104.667L568.667 105.333L568.333 104.667z"/>
<path style="fill:#01f701; stroke:none;" d="M571 104L572 105L571 104M592 116L593 117L592 116M612 128L613 129L612 128z"/>
<path style="fill:#30235b; stroke:none;" d="M617.667 133.333L618.333 133.667L617.667 133.333z"/>
<path style="fill:#4c2881; stroke:none;" d="M641.667 147.333L642.333 147.667L641.667 147.333M665.667 160.333L666.333 160.667L665.667 160.333z"/>
<path style="fill:#01f701; stroke:none;" d="M675 163L676 164L675 163z"/>
<path style="fill:#30235b; stroke:none;" d="M686.667 172.333L687.333 172.667L686.667 172.333z"/>
<path style="fill:#4c2881; stroke:none;" d="M689.667 174.333L690.333 174.667L689.667 174.333z"/>
<path style="fill:#7943c1; stroke:none;" d="M828.089 269.554C813.644 273.437 806.701 288.471 799.576 300C783.3 326.334 768.421 353.527 752.441 380.036C704.018 460.365 656.842 541.828 609.614 622.999C596.001 646.397 582.25 669.716 568.452 693C563.091 702.048 557.831 717.795 549.61 724.397C545.164 727.966 539.214 724.372 534.911 722.445C523.286 717.242 512.302 710.975 501.039 704.941C465.128 685.702 430.098 664.831 393.999 645.938C384.281 640.852 365.299 625.736 354.004 628.423C341.103 631.492 331.126 655.224 324.502 665.428C309.983 687.794 296.231 710.675 281.656 733C271.022 749.289 257.594 766.516 251.094 785.004C246.907 796.912 258.447 802.802 267 807.997C288.654 821.148 311.272 832.649 333 845.659C404.902 888.711 479.126 928.122 552 969.502C567.588 978.354 583.139 987.267 599 995.637C611.977 1002.48 624.725 1009.38 640 1005.44C656.116 1001.29 664.056 980.951 671.845 968.004C693.049 932.757 714.671 897.668 735.15 862C798.467 751.719 862.764 641.549 928.049 532.46C946.797 501.134 964.975 469.435 983.603 438C991.659 424.406 1006.51 405.821 1008.79 390C1012.59 363.66 993.921 354.056 973.964 342.522C941.82 323.945 910.382 304.146 878 285.989C863.177 277.678 846.237 264.676 828.089 269.554z"/>
<path style="fill:#01f701; stroke:none;" d="M211 287L212 288L211 287M889 290L890 291L889 290M208 292L209 293L208 292z"/>
<path style="fill:#4c2881; stroke:none;" d="M891.667 294.333L892.333 294.667L891.667 294.333z"/>
<path style="fill:#01f701; stroke:none;" d="M482 296L483 297L482 296M737 297L738 298L737 297M489 299L490 300L489 299z"/>
<path style="fill:#30235b; stroke:none;" d="M900.667 299.333L901.333 299.667L900.667 299.333z"/>
<path style="fill:#4c2881; stroke:none;" d="M732.333 301.667L732.667 302.333L732.333 301.667M498.667 302.333L499.333 302.667L498.667 302.333z"/>
<path style="fill:#01f701; stroke:none;" d="M734 302L735 303L734 302M498 303L499 304L498 303z"/>
<path style="fill:#4c2881; stroke:none;" d="M915.667 308.333L916.333 308.667L915.667 308.333z"/>
<path style="fill:#01f701; stroke:none;" d="M925 311L926 312L925 311M542 327L543 328L542 327M960 332L961 333L960 332M554 334L555 335L554 334z"/>
<path style="fill:#4c2881; stroke:none;" d="M711.333 334.667L711.667 335.333L711.333 334.667z"/>
<path style="fill:#01f701; stroke:none;" d="M561 338L562 339L561 338M572 344L573 345L572 344M766 353L767 354L766 353M594 356L595 357L594 356M999 356L1000 357L999 356M598 358L599 359L598 358M763 358L764 359L763 358M759 365L760 366L759 365z"/>
<path style="fill:#4d2057; stroke:none;" d="M686.667 373.333L687.333 373.667L686.667 373.333z"/>
<path style="fill:#01f701; stroke:none;" d="M687 376L688 377L687 376M157 378L158 379L157 378z"/>
<path style="fill:#4d2057; stroke:none;" d="M751 380L751 382L753 380L751 380z"/>
<path style="fill:#4c2881; stroke:none;" d="M739 401L739 403L741 403L741 401L739 401M998.333 410.667L998.667 411.333L998.333 410.667z"/>
<path style="fill:#01f701; stroke:none;" d="M134 418L135 419L134 418M727 418L728 419L727 418M720 431L721 432L720 431M119 443L120 444L119 443M709 448L710 449L709 448M115 450L116 451L115 450M110 458L111 459L110 458M703 459L704 460L703 459M970 464L971 465L970 464M106 465L107 466L106 465z"/>
<path style="fill:#4c2881; stroke:none;" d="M964.333 469.667L964.667 470.333L964.333 469.667M369.333 471.667L369.667 472.333L369.333 471.667z"/>
<path style="fill:#01f701; stroke:none;" d="M964 474L965 475L964 474M691 480L692 481L691 480M959 482L960 483L959 482M91 491L92 492L91 491z"/>
<path style="fill:#30235b; stroke:none;" d="M357.333 492.667L357.667 493.333L357.333 492.667z"/>
<path style="fill:#01f701; stroke:none;" d="M953 492L954 493L953 492z"/>
<path style="fill:#4c2881; stroke:none;" d="M950.333 493.667L950.667 494.333L950.333 493.667z"/>
<path style="fill:#01f701; stroke:none;" d="M950 497L951 498L950 497M85 501L86 502L85 501z"/>
<path style="fill:#4d2057; stroke:none;" d="M350.333 504.667L350.667 505.333L350.333 504.667z"/>
<path style="fill:#01f701; stroke:none;" d="M676 505L677 506L676 505M80 509L81 510L80 509M943 510L944 511L943 510M347 514L348 515L347 514M940 515L941 516L940 515z"/>
<path style="fill:#30235b; stroke:none;" d="M936 517L936 519L938 517L936 517z"/>
<path style="fill:#01f701; stroke:none;" d="M938 518L939 519L938 518M73 522L74 523L73 522z"/>
<path style="fill:#4d2057; stroke:none;" d="M933.667 522.333L934.333 522.667L933.667 522.333z"/>
<path style="fill:#01f701; stroke:none;" d="M70 527L71 528L70 527z"/>
<path style="fill:#30235b; stroke:none;" d="M336.333 528.667L336.667 529.333L336.333 528.667z"/>
<path style="fill:#01f701; stroke:none;" d="M932 528L933 529L932 528z"/>
<path style="fill:#4c2881; stroke:none;" d="M929.333 529.667L929.667 530.333L929.333 529.667z"/>
<path style="fill:#01f701; stroke:none;" d="M336 532L337 533L336 532z"/>
<path style="fill:#4c2881; stroke:none;" d="M927 532L927 534L929 534L929 532L927 532z"/>
<path style="fill:#01f701; stroke:none;" d="M64 537L65 538L64 537z"/>
<path style="fill:#4c2881; stroke:none;" d="M327.333 543.667L327.667 544.333L327.333 543.667z"/>
<path style="fill:#01f701; stroke:none;" d="M59 545L60 546L59 545z"/>
<path style="fill:#4c2881; stroke:none;" d="M918 547L918 549L920 549L920 547L918 547z"/>
<path style="fill:#01f701; stroke:none;" d="M917 554L918 555L917 554M53 555L54 556L53 555M320 560L321 561L320 560M913 561L914 562L913 561z"/>
<path style="fill:#4d2057; stroke:none;" d="M908.333 565.667L908.667 566.333L908.333 565.667z"/>
<path style="fill:#01f701; stroke:none;" d="M908 569L909 570L908 569M314 571L315 572L314 571M904 576L905 577L904 576M303 588L304 589L303 588z"/>
<path style="fill:#30235b; stroke:none;" d="M889.333 598.667L889.667 599.333L889.333 598.667z"/>
<path style="fill:#01f701; stroke:none;" d="M296 601L297 602L296 601M889 601L890 602L889 601z"/>
<path style="fill:#4c2881; stroke:none;" d="M283 617L283 619L285 619L285 617L283 617M273.333 635.667L273.667 636.333L273.333 635.667z"/>
<path style="fill:#01f701; stroke:none;" d="M336 643L337 644L336 643M269 646L270 647L269 646z"/>
<path style="fill:#30235b; stroke:none;" d="M263.333 653.667L263.667 654.333L263.333 653.667z"/>
<path style="fill:#01f701; stroke:none;" d="M264 654L265 655L264 654M425 661L426 662L425 661M24 663L25 664L24 663M429 663L430 664L429 663M257 666L258 667L257 666z"/>
<path style="fill:#30235b; stroke:none;" d="M254.333 668.667L254.667 669.333L254.333 668.667z"/>
<path style="fill:#01f701; stroke:none;" d="M248 681L249 682L248 681M469 685L470 686L469 685M63 687L64 688L63 687M481 692L482 693L481 692M73 693L74 694L73 693M827 707L828 708L827 707M98 708L99 709L98 708M525 716L526 717L525 716M289 717L290 718L289 717z"/>
<path style="fill:#4c2881; stroke:none;" d="M524 717L524 719L526 719L526 717L524 717z"/>
<path style="fill:#01f701; stroke:none;" d="M286 722L287 723L286 722M541 723L542 724L541 723M812 732L813 733L812 732z"/>
<path style="fill:#4c2881; stroke:none;" d="M791.333 765.667L791.667 766.333L791.333 765.667z"/>
<path style="fill:#4d2057; stroke:none;" d="M787.333 771.667L787.667 772.333L787.333 771.667z"/>
<path style="fill:#4c2881; stroke:none;" d="M778 786L778 788L780 786L778 786z"/>
<path style="fill:#01f701; stroke:none;" d="M322 841L323 842L322 841M348 856L349 857L348 856z"/>
<path style="fill:#4c2881; stroke:none;" d="M354.667 857.333L355.333 857.667L354.667 857.333z"/>
<path style="fill:#30235b; stroke:none;" d="M726.333 875.667L726.667 876.333L726.333 875.667z"/>
<path style="fill:#4c2881; stroke:none;" d="M717.333 890.667L717.667 891.333L717.333 890.667z"/>
<path style="fill:#01f701; stroke:none;" d="M411 891L412 892L411 891z"/>
<path style="fill:#4d2057; stroke:none;" d="M715.333 893.667L715.667 894.333L715.333 893.667z"/>
<path style="fill:#01f701; stroke:none;" d="M431 903L432 904L431 903z"/>
<path style="fill:#30235b; stroke:none;" d="M705.333 911.667L705.667 912.333L705.333 911.667z"/>
<path style="fill:#01f701; stroke:none;" d="M463 921L464 922L463 921M473 927L474 928L473 927M484 933L485 934L484 933M689 941L690 942L689 941M518 952L519 953L518 952z"/>
<path style="fill:#4c2881; stroke:none;" d="M530.667 957.333L531.333 957.667L530.667 957.333z"/>
<path style="fill:#01f701; stroke:none;" d="M529 958L530 959L529 958M532 960L533 961L532 960z"/>
<path style="fill:#4c2881; stroke:none;" d="M674.333 962.667L674.667 963.333L674.333 962.667z"/>
<path style="fill:#01f701; stroke:none;" d="M568 980L570 982L568 980z"/>
</svg>
